Coordinates
version=1
nRows=41
nColumns=38
inDegrees=no

Units are S.I. units (second, meters, Newtons, ...)
If the header above contains a line with 'inDegrees', this indicates whether rotational values are in degrees (yes) or radians (no).

endheader
time	pelvis_tilt	pelvis_list	pelvis_rotation	pelvis_tx	pelvis_ty	pelvis_tz	hip_flexion_r	hip_adduction_r	hip_rotation_r	knee_angle_r	ankle_angle_r	subtalar_angle_r	mtp_angle_r	hip_flexion_l	hip_adduction_l	hip_rotation_l	knee_angle_l	ankle_angle_l	subtalar_angle_l	mtp_angle_l	lumbar_extension	lumbar_bending	lumbar_rotation	arm_flex_r	arm_add_r	arm_rot_r	elbow_flex_r	pro_sup_r	wrist_flex_r	wrist_dev_r	arm_flex_l	arm_add_l	arm_rot_l	elbow_flex_l	pro_sup_l	wrist_flex_l	wrist_dev_l
1.21	-3.06745	1.28747	1.64206	0.481149	0.305287	1.01105	0.585255	-0.0442029	-0.0855372	0	-0.204651	0	0	0.0258112	-0.0222684	-0.28275	0.1968	-0.0737945	0	0	0.143007	0.010258	-0.0502734	-0.284004	-0.288302	0.145007	0.462541	1.35514	0	0	-0.261025	-0.157589	-0.497042	0.690851	0.999271	0	0
1.22	-3.06618	1.28905	1.64331	0.480769	0.292154	1.00921	0.582062	-0.0407896	-0.0853437	0	-0.203406	0	0	0.0196691	-0.0282161	-0.283859	0.215723	-0.0712882	0	0	0.139714	0.0130476	-0.0511142	-0.281894	-0.288887	0.139549	0.45746	1.36159	0	0	-0.260933	-0.160449	-0.490792	0.690736	0.996888	0	0
1.23	-3.06105	1.29239	1.63936	0.480352	0.278718	1.00779	0.576937	-0.0354023	-0.0808598	0	-0.203116	0	0	0.0122724	-0.0350992	-0.285116	0.235249	-0.0686159	0	0	0.135992	0.016469	-0.0494103	-0.27941	-0.289378	0.135625	0.450104	1.36374	0	0	-0.26029	-0.162679	-0.484907	0.690002	0.997317	0	0
1.24	-3.05179	1.29786	1.62975	0.479789	0.264868	1.0067	0.568738	-0.0273047	-0.0727709	0	-0.204894	0	0	0.00373047	-0.04443	-0.289137	0.258025	-0.0651479	0	0	0.129961	0.0216432	-0.04659	-0.276438	-0.290243	0.131271	0.443009	1.36412	0	0	-0.259673	-0.163816	-0.479156	0.688643	0.998174	0	0
1.25	-3.03504	1.31066	1.61059	0.479117	0.250535	1.00632	0.550881	-0.0149268	-0.0632217	0	-0.217286	0	0	-0.0099677	-0.0592617	-0.309365	0.290998	-0.0617594	0	0	0.116817	0.0272181	-0.0484625	-0.257577	-0.317176	0.267464	0.432929	1.19717	0	0	-0.26485	-0.15931	-0.490685	0.695583	1.01108	0	0
1.26	-3.02006	1.31952	1.5941	0.478461	0.235858	1.00583	0.536425	-0.00350636	-0.053526	0	-0.240611	0	0	-0.0210945	-0.0707668	-0.314135	0.317443	-0.0741575	0	0	0.104519	0.0375791	-0.0340784	-0.274863	-0.29652	0.126257	0.43965	1.34251	0	0	-0.255735	-0.161949	-0.470216	0.686914	1.00384	0	0
1.27	-3.00158	1.32534	1.57285	0.477713	0.221078	1.00544	0.52517	0.00806807	-0.0401595	0	-0.277463	0	0	-0.0279346	-0.0824879	-0.314733	0.344898	-0.0880109	0	0	0.100686	0.0461499	-0.0294368	-0.275512	-0.302209	0.131746	0.439478	1.32689	0	0	-0.255208	-0.15701	-0.476106	0.681926	1.01088	0	0
1.28	-2.98138	1.32627	1.54822	0.476776	0.206388	1.00506	0.519588	0.0184396	-0.0229602	0.00084272	-0.31684	0	0	-0.0274786	-0.0942883	-0.31006	0.374235	-0.105095	0	0	0.10341	0.0555626	-0.0233758	-0.27688	-0.307858	0.136281	0.438847	1.31282	0	0	-0.254486	-0.151332	-0.482846	0.673509	1.01455	0	0
1.29	-2.96206	1.32193	1.5231	0.47569	0.19168	1.0047	0.520444	0.0279349	-0.00884837	0.00893832	-0.342559	0	0	-0.0189861	-0.105958	-0.303286	0.407545	-0.124859	0	0	0.113437	0.0652426	-0.0161591	-0.279301	-0.313132	0.139961	0.437434	1.30047	0	0	-0.255056	-0.145602	-0.489611	0.663497	1.01673	0	0
1.3	-2.94416	1.3157	1.49666	0.474467	0.176879	1.00464	0.523687	0.0379831	0.00123853	0.0237924	-0.350861	0	0	-0.00356302	-0.118058	-0.308952	0.453987	-0.148305	0	0	0.12625	0.0750499	-0.00651883	-0.282334	-0.318722	0.144242	0.436129	1.28805	0	0	-0.257399	-0.139973	-0.495677	0.65433	1.02057	0	0
1.31	-2.92409	1.3117	1.46892	0.47324	0.162443	1.00507	0.525739	0.0456471	0.0122892	0.0477592	-0.342903	0	0	0.0152457	-0.131828	-0.320024	0.512857	-0.173173	0	0	0.134127	0.0849135	0.00177412	-0.283412	-0.324741	0.149818	0.436849	1.27562	0	0	-0.259894	-0.134125	-0.501559	0.649043	1.02479	0	0
1.32	-2.90421	1.3086	1.44158	0.471959	0.148272	1.00575	0.533311	0.0523464	0.0152308	0.0928935	-0.316077	0	0	0.0369539	-0.147438	-0.335502	0.577877	-0.208319	0	0	0.139284	0.0942981	0.00926782	-0.283842	-0.332572	0.160968	0.441506	1.25635	0	0	-0.26268	-0.127761	-0.508977	0.646786	1.03079	0	0
1.33	-2.88408	1.30715	1.41395	0.470742	0.13431	1.00683	0.538581	0.0625919	0.0132284	0.137047	-0.292355	0	0	0.0589678	-0.163784	-0.351513	0.643013	-0.243771	0	0	0.141515	0.103211	0.0161386	-0.28223	-0.341731	0.17758	0.446976	1.23402	0	0	-0.265282	-0.121849	-0.515731	0.645623	1.03531	0	0
1.34	-2.86334	1.30712	1.38646	0.469509	0.120591	1.00801	0.542942	0.0739606	0.00333645	0.18377	-0.258688	0	0	0.0822612	-0.182103	-0.369069	0.709457	-0.295164	0	0	0.137835	0.114207	0.0331485	-0.297863	-0.327389	0.0643707	0.465079	1.35012	0	0	-0.257035	-0.118736	-0.512598	0.637061	1.04259	0	0
1.35	-2.8395	1.30824	1.35865	0.468357	0.107195	1.0092	0.542449	0.084648	-0.00949716	0.221111	-0.236207	0	0	0.105958	-0.200946	-0.380276	0.774381	-0.340415	0	0	0.134538	0.122086	0.0390077	-0.29958	-0.333348	0.0612838	0.479031	1.3487	0	0	-0.257175	-0.115887	-0.514578	0.637931	1.04716	0	0
1.36	-2.80987	1.31052	1.32835	0.467348	0.0941209	1.01033	0.536029	0.0944502	-0.0255892	0.247688	-0.217948	0	0	0.130611	-0.220454	-0.383935	0.838236	-0.384171	0	0	0.128942	0.129425	0.0416124	-0.300264	-0.339865	0.0610275	0.494734	1.34565	0	0	-0.257361	-0.115093	-0.514259	0.64075	1.05141	0	0
1.37	-2.7791	1.31249	1.29906	0.466471	0.0812562	1.01134	0.525242	0.103196	-0.0410503	0.264283	-0.202179	0	0	0.157206	-0.238708	-0.381499	0.898052	-0.428105	0	0	0.12397	0.135709	0.0415412	-0.299855	-0.346579	0.0632013	0.510618	1.33899	0	0	-0.257773	-0.115931	-0.512884	0.643948	1.05695	0	0
1.38	-2.74061	1.31605	1.26864	0.466128	0.0689393	1.01255	0.508965	0.109944	-0.0606099	0.274023	-0.187187	0	0	0.185157	-0.254822	-0.366363	0.953879	-0.468378	0	0	0.115585	0.142461	0.0357309	-0.299102	-0.354627	0.0664447	0.530517	1.32722	0	0	-0.255406	-0.116744	-0.511739	0.647103	1.06358	0	0
1.39	-2.70689	1.31775	1.24526	0.466093	0.0568855	1.01376	0.493355	0.115029	-0.0786538	0.280665	-0.174189	0	0	0.21506	-0.263577	-0.33635	1.00608	-0.486437	0	0	0.110265	0.148801	0.0267395	-0.298199	-0.363708	0.0707634	0.551622	1.31156	0	0	-0.253252	-0.117331	-0.509879	0.649436	1.06949	0	0
1.4	-2.6843	1.31945	1.2326	0.46605	0.044813	1.01528	0.477477	0.117766	-0.0937821	0.284619	-0.164494	0	0	0.245782	-0.267776	-0.30849	1.05213	-0.488604	0	0	0.107082	0.15235	0.016379	-0.294581	-0.373322	0.0808752	0.569834	1.28952	0	0	-0.252329	-0.118497	-0.508181	0.65049	1.07444	0	0
1.41	-2.67221	1.321	1.22961	0.46598	0.0327878	1.01693	0.463377	0.118357	-0.110015	0.289708	-0.15241	0	0	0.276914	-0.267263	-0.280882	1.09623	-0.458713	0	0	0.102176	0.155766	0.0199618	-0.308599	-0.349217	-0.0370251	0.594606	1.41595	0	0	-0.242895	-0.126697	-0.479776	0.64337	1.0634	0	0
1.42	-2.66999	1.32174	1.23451	0.465798	0.0208351	1.01867	0.450161	0.118076	-0.121689	0.291083	-0.144988	0	0	0.307647	-0.262477	-0.255469	1.13401	-0.423187	0	0	0.102337	0.154328	0.0152735	-0.307431	-0.351013	-0.0474036	0.610863	1.41711	0	0	-0.2414	-0.127211	-0.480538	0.643444	1.06294	0	0
1.43	-2.67631	1.3222	1.24552	0.465475	0.00898083	1.02046	0.437622	0.117146	-0.131016	0.290429	-0.138656	0	0	0.33682	-0.254531	-0.233674	1.16595	-0.383067	0	0	0.103758	0.150725	0.0134172	-0.306451	-0.352692	-0.0563314	0.626622	1.41745	0	0	-0.240625	-0.127189	-0.484193	0.643766	1.06117	0	0
1.44	-2.69045	1.3227	1.26195	0.465008	-0.0028033	1.02229	0.425672	0.115255	-0.140253	0.289392	-0.13347	0	0	0.364571	-0.244607	-0.216996	1.193	-0.340918	0	0	0.106248	0.144822	0.0144679	-0.305503	-0.353842	-0.0642806	0.641405	1.41475	0	0	-0.240743	-0.128155	-0.488024	0.643959	1.06194	0	0
1.45	-2.70897	1.32405	1.28153	0.464564	-0.0145247	1.02418	0.41282	0.112151	-0.148234	0.288506	-0.12911	0	0	0.393466	-0.229998	-0.206535	1.22184	-0.296506	0	0	0.108519	0.137085	0.0168073	-0.304087	-0.355045	-0.070356	0.655537	1.40893	0	0	-0.241953	-0.129468	-0.492659	0.645301	1.0657	0	0
1.46	-2.73026	1.32721	1.30235	0.463977	-0.0263262	1.02627	0.397271	0.108439	-0.15375	0.286958	-0.125667	0	0	0.414925	-0.218215	-0.197824	1.23725	-0.266972	0	0	0.109172	0.12773	0.0202415	-0.301594	-0.357138	-0.0714392	0.668621	1.40304	0	0	-0.244071	-0.131111	-0.497178	0.64733	1.06963	0	0
1.47	-2.75628	1.33101	1.32686	0.463346	-0.038149	1.02844	0.380658	0.103663	-0.158609	0.285205	-0.122515	0	0	0.433739	-0.206065	-0.191676	1.24602	-0.244989	0	0	0.109598	0.11715	0.0238175	-0.29873	-0.360508	-0.067708	0.681979	1.39408	0	0	-0.24722	-0.132406	-0.502811	0.649845	1.07269	0	0
1.48	-2.78568	1.33431	1.3541	0.462696	-0.0499334	1.03061	0.363889	0.0989979	-0.161988	0.28164	-0.121015	0	0	0.451717	-0.194011	-0.186742	1.24793	-0.231368	0	0	0.111017	0.105953	0.0266277	-0.294309	-0.365163	-0.0567577	0.693256	1.37999	0	0	-0.251944	-0.134397	-0.507566	0.652209	1.07675	0	0
1.49	-2.81736	1.33819	1.38316	0.462005	-0.0616554	1.03283	0.345756	0.0941813	-0.164702	0.275313	-0.121027	0	0	0.467266	-0.183051	-0.185106	1.24297	-0.215243	0	0	0.109215	0.0964174	0.038396	-0.300518	-0.34377	-0.127465	0.711188	1.47017	0	0	-0.248868	-0.140054	-0.497541	0.646979	1.07733	0	0
1.5	-2.84793	1.34278	1.41023	0.461299	-0.0732778	1.03487	0.326605	0.0898556	-0.167856	0.267782	-0.121532	0	0	0.480805	-0.174317	-0.187189	1.23333	-0.203241	0	0	0.104299	0.0850624	0.0423441	-0.296602	-0.344701	-0.128933	0.72777	1.47166	0	0	-0.253358	-0.142194	-0.501028	0.652275	1.08098	0	0
1.51	-2.87362	1.34864	1.42968	0.46033	-0.0850036	1.03678	0.305601	0.0876322	-0.16893	0.259482	-0.122285	0	0	0.487887	-0.178215	-0.199904	1.21424	-0.198134	0	0	0.0973446	0.0749439	0.0488234	-0.293097	-0.346301	-0.128472	0.745293	1.47174	0	0	-0.258764	-0.144245	-0.504541	0.659568	1.08505	0	0
1.52	-2.90954	1.34929	1.46094	0.459765	-0.0963214	1.03825	0.291253	0.0824799	-0.169629	0.252868	-0.123087	0	0	0.505512	-0.162181	-0.196119	1.19958	-0.188369	0	0	0.0963962	0.0632932	0.0541429	-0.289966	-0.34793	-0.126919	0.76113	1.47046	0	0	-0.263198	-0.146073	-0.507678	0.664733	1.08793	0	0
1.53	-2.93689	1.35174	1.48004	0.458879	-0.108085	1.0396	0.274153	0.0801805	-0.169191	0.246239	-0.124159	0	0	0.513125	-0.168013	-0.212427	1.17197	-0.182254	0	0	0.0937488	0.0541248	0.0626674	-0.28871	-0.350948	-0.123851	0.779463	1.46732	0	0	-0.268692	-0.146756	-0.51183	0.671467	1.09083	0	0
1.54	-2.96422	1.35148	1.50348	0.458548	-0.119244	1.04067	0.260637	0.0760863	-0.171194	0.240693	-0.125302	0	0	0.528322	-0.156969	-0.21251	1.1485	-0.169542	0	0	0.0929748	0.0453586	0.0666355	-0.287174	-0.354654	-0.121324	0.799266	1.45893	0	0	-0.272441	-0.146918	-0.515576	0.676882	1.09456	0	0
1.55	-2.98053	1.35336	1.51512	0.458065	-0.130547	1.04167	0.243566	0.0750614	-0.171879	0.233016	-0.126795	0	0	0.535471	-0.162627	-0.224732	1.11325	-0.163269	0	0	0.0899624	0.0391748	0.0701985	-0.285023	-0.360561	-0.114466	0.819744	1.448	0	0	-0.276747	-0.146364	-0.519708	0.683463	1.09836	0	0
1.56	-3.00472	1.34891	1.53761	0.458041	-0.141251	1.04216	0.234605	0.0710138	-0.172145	0.227297	-0.127546	0	0	0.553261	-0.14326	-0.205019	1.07871	-0.149161	0	0	0.0938955	0.0311569	0.0706464	-0.281926	-0.367717	-0.101789	0.837185	1.43258	0	0	-0.280186	-0.145889	-0.523281	0.688502	1.10214	0	0
1.57	-3.02089	1.35367	1.54671	0.457474	-0.152597	1.04309	0.214714	0.0701911	-0.171234	0.219861	-0.12954	0	0	0.554518	-0.151567	-0.22832	1.03929	-0.146554	0	0	0.0850706	0.0275024	0.083877	-0.288623	-0.355621	-0.143667	0.863768	1.48678	0	0	-0.27681	-0.149323	-0.509611	0.689408	1.09853	0	0
1.58	-3.04049	1.35285	1.56104	0.457092	-0.163645	1.04353	0.202033	0.0679335	-0.170304	0.214965	-0.130386	0	0	0.560992	-0.15009	-0.233497	0.990316	-0.146857	0	0	0.0848452	0.0217265	0.0889803	-0.287815	-0.357977	-0.144303	0.883458	1.48423	0	0	-0.277746	-0.149114	-0.509362	0.692833	1.10093	0	0
1.59	-3.05583	1.3511	1.57234	0.456881	-0.174659	1.04374	0.190437	0.0662199	-0.170021	0.210194	-0.131033	0	0	0.568026	-0.145146	-0.232714	0.938119	-0.14855	0	0	0.0859309	0.0173107	0.0927683	-0.287345	-0.360988	-0.143122	0.902272	1.48439	0	0	-0.278098	-0.148406	-0.508899	0.695571	1.10351	0	0
1.6	-3.06532	1.34726	1.5784	0.456726	-0.185567	1.04354	0.181458	0.065638	-0.16895	0.206103	-0.130499	0	0	0.57524	-0.138981	-0.220143	0.877883	-0.147926	0	0	0.0896699	0.0136097	0.0935441	-0.284445	-0.368255	-0.131563	0.918795	1.47685	0	0	-0.280726	-0.146275	-0.512182	0.701411	1.10626	0	0
1.61	-3.0801	1.35093	1.5868	0.456447	-0.196746	1.04387	0.163911	0.0641884	-0.167389	0.20124	-0.129851	0	0	0.574325	-0.139027	-0.246384	0.820983	-0.162871	0	0	0.0826653	0.010579	0.101553	-0.285903	-0.368986	-0.140523	0.941212	1.48264	0	0	-0.276794	-0.145617	-0.507951	0.702985	1.10699	0	0
